<svg width="34" height="41" viewBox="0 0 34 41" fill="none" xmlns="http://www.w3.org/2000/svg">
<path fill-rule="evenodd" clip-rule="evenodd" d="M17.5996 0.360044C17.216 0.200825 16.7839 0.200747 16.4004 0.360044L1.08789 6.71747C0.505093 6.95971 0.125175 7.52871 0.125 8.15985V15.8884C0.125 26.5299 6.5567 36.1032 16.4092 40.1247C16.7876 40.2791 17.2123 40.2791 17.5908 40.1247C27.4431 36.1032 33.875 26.53 33.875 15.8884V8.15985C33.8748 7.52871 33.495 6.95971 32.9121 6.71747L17.5996 0.360044ZM14.9947 21.5711L22.7919 13.3903C23.5002 12.647 24.6488 12.6469 25.3573 13.3903C26.0658 14.1336 26.0657 15.3387 25.3572 16.082L16.2774 25.6086C15.5688 26.3521 14.4202 26.3518 13.712 25.6086L8.6422 20.2894C7.93372 19.546 7.93372 18.3409 8.6422 17.5977C9.35068 16.8544 10.4993 16.8543 11.2076 17.5977L14.9947 21.5711Z" fill="#F89A1C"/>
</svg>
