<svg width="20" height="20" viewBox="0 0 20 20" fill="none" xmlns="http://www.w3.org/2000/svg">
<path fill-rule="evenodd" clip-rule="evenodd" d="M6.66699 0.833496C7.12723 0.833496 7.50033 1.20659 7.50033 1.66683V2.50016H12.5003V1.66683C12.5003 1.20659 12.8734 0.833496 13.3337 0.833496C13.7939 0.833496 14.167 1.20659 14.167 1.66683V2.50016H15.0003C16.8413 2.50016 18.3337 3.99255 18.3337 5.8335V15.0002C18.3337 16.8411 16.8413 18.3335 15.0003 18.3335H5.00033C3.15938 18.3335 1.66699 16.8411 1.66699 15.0002V5.8335C1.66699 3.99255 3.15938 2.50016 5.00033 2.50016H5.83366V1.66683C5.83366 1.20659 6.20675 0.833496 6.66699 0.833496ZM12.5003 4.16683C12.5003 4.62707 12.8734 5.00016 13.3337 5.00016C13.7939 5.00016 14.167 4.62707 14.167 4.16683H15.0003C15.9208 4.16683 16.667 4.91302 16.667 5.8335V6.25016H3.33366V5.8335C3.33366 4.91302 4.07985 4.16683 5.00033 4.16683H5.83366C5.83366 4.62707 6.20675 5.00016 6.66699 5.00016C7.12723 5.00016 7.50033 4.62707 7.50033 4.16683H12.5003ZM16.667 7.91683H3.33366V15.0002C3.33366 15.9206 4.07985 16.6668 5.00033 16.6668H15.0003C15.9208 16.6668 16.667 15.9206 16.667 15.0002V7.91683Z" fill="#2B2B2B" fill-opacity="0.8"/>
</svg>
