<svg width="48" height="48" viewBox="0 0 48 48" fill="none" xmlns="http://www.w3.org/2000/svg">
<rect width="48" height="48" rx="12" fill="#FF9200" fill-opacity="0.05"/>
<path d="M19.3332 35.6667C19.9775 35.6667 20.4998 35.1444 20.4998 34.5C20.4998 33.8557 19.9775 33.3334 19.3332 33.3334C18.6888 33.3334 18.1665 33.8557 18.1665 34.5C18.1665 35.1444 18.6888 35.6667 19.3332 35.6667Z" stroke="#FF9200" stroke-width="2.33333" stroke-linecap="round" stroke-linejoin="round"/>
<path d="M32.1667 35.6667C32.811 35.6667 33.3333 35.1444 33.3333 34.5C33.3333 33.8557 32.811 33.3334 32.1667 33.3334C31.5223 33.3334 31 33.8557 31 34.5C31 35.1444 31.5223 35.6667 32.1667 35.6667Z" stroke="#FF9200" stroke-width="2.33333" stroke-linecap="round" stroke-linejoin="round"/>
<path d="M12.3916 12.3917H14.7249L17.8283 26.8817C17.9421 27.4124 18.2374 27.8868 18.6633 28.2232C19.0891 28.5597 19.619 28.7371 20.1616 28.7251H31.5716C32.1026 28.7242 32.6175 28.5422 33.0311 28.2092C33.4448 27.8762 33.7324 27.412 33.8466 26.8934L35.7716 18.2251H15.9733" stroke="#FF9200" stroke-width="2.33333" stroke-linecap="round" stroke-linejoin="round"/>
</svg>
