<svg width="24" height="24" viewBox="0 0 24 24" fill="none" xmlns="http://www.w3.org/2000/svg">
<path fill-rule="evenodd" clip-rule="evenodd" d="M12.3594 0.0719407C12.1292 -0.0235906 11.8707 -0.0236374 11.6406 0.0719407L2.45312 3.88639C2.10333 4.03165 1.87517 4.37291 1.875 4.75163V9.38932C1.87507 15.7742 5.73414 21.5174 11.6455 23.9303C11.8726 24.023 12.1274 24.023 12.3545 23.9303C18.2658 21.5175 22.1249 15.7742 22.125 9.38932V4.75163C22.1248 4.37291 21.8967 4.03165 21.5469 3.88639L12.3594 0.0719407ZM10.7968 12.7985L15.4751 7.89004C15.9001 7.44408 16.5893 7.44403 17.0144 7.89004C17.4395 8.33605 17.4394 9.0591 17.0143 9.50506L11.5664 15.2211C11.1413 15.6671 10.4522 15.667 10.0272 15.2211L6.98532 12.0295C6.56023 11.5835 6.56023 10.8604 6.98532 10.4145C7.41041 9.96854 8.09955 9.96848 8.52459 10.4145L10.7968 12.7985Z" fill="#F89A1C"/>
</svg>
