<svg width="24" height="25" viewBox="0 0 24 25" fill="none" xmlns="http://www.w3.org/2000/svg">
<g clip-path="url(#clip0_1370_2419)">
<path d="M3 8.82471V10.3247H1.5C1.30109 10.3247 1.11032 10.2457 0.96967 10.105C0.829018 9.96438 0.75 9.77362 0.75 9.57471C0.75 9.37579 0.829018 9.18503 0.96967 9.04438C1.11032 8.90372 1.30109 8.82471 1.5 8.82471H3ZM3 11.8247V13.3247H1.5C1.30109 13.3247 1.11032 13.2457 0.96967 13.105C0.829018 12.9644 0.75 12.7736 0.75 12.5747C0.75 12.3758 0.829018 12.185 0.96967 12.0444C1.11032 11.9037 1.30109 11.8247 1.5 11.8247H3ZM3 14.8247V16.3247H1.5C1.30109 16.3247 1.11032 16.2457 0.96967 16.105C0.829018 15.9644 0.75 15.7736 0.75 15.5747C0.75 15.3758 0.829018 15.185 0.96967 15.0444C1.11032 14.9037 1.30109 14.8247 1.5 14.8247H3Z" fill="#F2F1F2"/>
<path d="M21 0.574707H4.5C3.90326 0.574707 3.33097 0.81176 2.90901 1.23372C2.48705 1.65567 2.25 2.22797 2.25 2.82471V8.82471H4.5C4.69891 8.82471 4.88968 8.90372 5.03033 9.04438C5.17098 9.18503 5.25 9.37579 5.25 9.57471C5.25 9.77362 5.17098 9.96439 5.03033 10.105C4.88968 10.2457 4.69891 10.3247 4.5 10.3247H2.25V11.8247H4.5C4.69891 11.8247 4.88968 11.9037 5.03033 12.0444C5.17098 12.185 5.25 12.3758 5.25 12.5747C5.25 12.7736 5.17098 12.9644 5.03033 13.105C4.88968 13.2457 4.69891 13.3247 4.5 13.3247H2.25V14.8247H4.5C4.69891 14.8247 4.88968 14.9037 5.03033 15.0444C5.17098 15.185 5.25 15.3758 5.25 15.5747C5.25 15.7736 5.17098 15.9644 5.03033 16.105C4.88968 16.2457 4.69891 16.3247 4.5 16.3247H2.25V22.3247C2.25 22.9214 2.48705 23.4937 2.90901 23.9157C3.33097 24.3377 3.90326 24.5747 4.5 24.5747H21C21.5967 24.5747 22.169 24.3377 22.591 23.9157C23.0129 23.4937 23.25 22.9214 23.25 22.3247V2.82471C23.25 2.22797 23.0129 1.65567 22.591 1.23372C22.169 0.81176 21.5967 0.574707 21 0.574707V0.574707ZM12.75 7.69971C13.1208 7.69971 13.4834 7.80967 13.7917 8.0157C14.1 8.22173 14.3404 8.51456 14.4823 8.85718C14.6242 9.19979 14.6613 9.57679 14.589 9.9405C14.5166 10.3042 14.338 10.6383 14.0758 10.9005C13.8136 11.1628 13.4795 11.3413 13.1158 11.4137C12.7521 11.486 12.3751 11.4489 12.0325 11.307C11.6899 11.1651 11.397 10.9247 11.191 10.6164C10.985 10.3081 10.875 9.94555 10.875 9.57471C10.875 9.07743 11.0725 8.60051 11.4242 8.24888C11.7758 7.89725 12.2527 7.69971 12.75 7.69971ZM16.875 17.0747C16.875 17.1742 16.8355 17.2695 16.7652 17.3399C16.6948 17.4102 16.5995 17.4497 16.5 17.4497H9C8.90054 17.4497 8.80516 17.4102 8.73483 17.3399C8.66451 17.2695 8.625 17.1742 8.625 17.0747V16.3247C8.62698 15.4302 8.9832 14.5729 9.6157 13.9404C10.2482 13.3079 11.1055 12.9517 12 12.9497H13.5C14.3945 12.9517 15.2518 13.3079 15.8843 13.9404C16.5168 14.5729 16.873 15.4302 16.875 16.3247V17.0747Z" fill="#F2F1F2"/>
</g>
<defs>
<clipPath id="clip0_1370_2419">
<rect width="24" height="24" fill="white" transform="translate(0 0.574707)"/>
</clipPath>
</defs>
</svg>
