<svg width="36" height="37" viewBox="0 0 36 37" fill="none" xmlns="http://www.w3.org/2000/svg">
<g clip-path="url(#clip0_1370_2392)">
<path d="M31.5 36.7144H4.5C2.016 36.7144 0 34.6984 0 32.2144V5.21436C0 2.73036 2.016 0.714355 4.5 0.714355H31.5C33.984 0.714355 36 2.73036 36 5.21436V32.2144C36 34.6984 33.984 36.7144 31.5 36.7144Z" fill="#F2F1F2"/>
<path d="M36 18.7143C36 8.77314 27.9411 0.714268 18 0.714268C8.05887 0.714268 0 8.77314 0 18.7143C0 27.6986 6.58234 35.1452 15.1875 36.4956V23.9174H10.6172V18.7143H15.1875V14.7486C15.1875 10.2374 17.8748 7.74552 21.9864 7.74552C23.9557 7.74552 26.0156 8.09708 26.0156 8.09708V12.5268H23.7459C21.5098 12.5268 20.8125 13.9143 20.8125 15.3378V18.7143H25.8047L25.0066 23.9174H20.8125V36.4956C29.4177 35.1452 36 27.6986 36 18.7143Z" fill="#F2F1F2"/>
<path d="M25.0066 23.9175L25.8047 18.7144H20.8125V15.3378C20.8125 13.9144 21.5098 12.5269 23.7459 12.5269H26.0156V8.09717C26.0156 8.09717 23.9557 7.74561 21.9864 7.74561C17.8748 7.74561 15.1875 10.2375 15.1875 14.7487V18.7144H10.6172V23.9175H15.1875V36.4957C16.1039 36.6395 17.0432 36.7144 18 36.7144C18.9568 36.7144 19.8961 36.6395 20.8125 36.4957V23.9175H25.0066Z" fill="#561D5E"/>
</g>
<defs>
<clipPath id="clip0_1370_2392">
<rect width="36" height="36" fill="white" transform="translate(0 0.714355)"/>
</clipPath>
</defs>
</svg>
