<svg width="36" height="37" viewBox="0 0 36 37" fill="none" xmlns="http://www.w3.org/2000/svg">
<rect y="0.714355" width="36" height="36" rx="5" fill="#F2F1F2"/>
<path d="M18.0013 5.21436C14.3349 5.21436 13.8747 5.23039 12.4347 5.29592C10.9975 5.36174 10.0165 5.58928 9.15811 5.92313C8.2702 6.26796 7.517 6.72923 6.76662 7.47992C6.01567 8.23032 5.55442 8.98354 5.20848 9.8712C4.87378 10.7299 4.64597 11.7112 4.58128 13.1479C4.51688 14.588 4.5 15.0484 4.5 18.7149C4.5 22.3814 4.51631 22.8402 4.58156 24.2802C4.64766 25.7175 4.87519 26.6985 5.20876 27.5569C5.55385 28.4449 6.01511 29.1981 6.76577 29.9485C7.51588 30.6995 8.26907 31.1618 9.15642 31.5067C10.0154 31.8405 10.9967 32.0681 12.4336 32.1339C13.8736 32.1994 14.3334 32.2155 17.9996 32.2155C21.6663 32.2155 22.125 32.1994 23.565 32.1339C25.0022 32.0681 25.9843 31.8405 26.8433 31.5067C27.7309 31.1618 28.483 30.6995 29.2331 29.9485C29.984 29.1981 30.4453 28.4449 30.7912 27.5572C31.1231 26.6985 31.3509 25.7172 31.4184 24.2805C31.4831 22.8404 31.5 22.3814 31.5 18.7149C31.5 15.0484 31.4831 14.5882 31.4184 13.1482C31.3509 11.7109 31.1231 10.7299 30.7912 9.87148C30.4453 8.98354 29.984 8.23032 29.2331 7.47992C28.4822 6.72895 27.7312 6.26768 26.8425 5.92313C25.9818 5.58928 25.0002 5.36174 23.563 5.29592C22.123 5.23039 21.6646 5.21436 17.997 5.21436H18.0013ZM16.7902 7.64727C17.1496 7.6467 17.5507 7.64727 18.0013 7.64727C21.6058 7.64727 22.033 7.66021 23.4564 7.7249C24.7727 7.78509 25.4871 8.00503 25.963 8.18982C26.593 8.43452 27.0421 8.72703 27.5144 9.19955C27.9869 9.67207 28.2794 10.1221 28.5246 10.7521C28.7094 11.2274 28.9296 11.9418 28.9895 13.2582C29.0542 14.6813 29.0683 15.1089 29.0683 18.7118C29.0683 22.3148 29.0542 22.7423 28.9895 24.1655C28.9293 25.4818 28.7094 26.1962 28.5246 26.6715C28.2799 27.3015 27.9869 27.7501 27.5144 28.2224C27.0419 28.6949 26.5933 28.9874 25.963 29.2321C25.4877 29.4177 24.7727 29.6371 23.4564 29.6973C22.0333 29.762 21.6058 29.7761 18.0013 29.7761C14.3964 29.7761 13.9692 29.762 12.5461 29.6973C11.2298 29.6366 10.5154 29.4166 10.0393 29.2318C9.40927 28.9871 8.95926 28.6946 8.48676 28.2221C8.01426 27.7496 7.72175 27.3007 7.4765 26.6704C7.29172 26.1951 7.0715 25.4806 7.01159 24.1643C6.9469 22.7412 6.93396 22.3136 6.93396 18.7084C6.93396 15.1032 6.9469 14.678 7.01159 13.2548C7.07178 11.9385 7.29172 11.2241 7.4765 10.7482C7.72119 10.1181 8.01426 9.66813 8.48676 9.19561C8.95926 8.72309 9.40927 8.43058 10.0393 8.18532C10.5152 7.99969 11.2298 7.7803 12.5461 7.71983C13.7915 7.66358 14.2741 7.6467 16.7902 7.64389V7.64727ZM25.2075 9.88892C24.3131 9.88892 23.5875 10.6137 23.5875 11.5084C23.5875 12.4028 24.3131 13.1285 25.2075 13.1285C26.1019 13.1285 26.8275 12.4028 26.8275 11.5084C26.8275 10.614 26.1019 9.88836 25.2075 9.88836V9.88892ZM18.0013 11.7818C14.1726 11.7818 11.0684 14.8861 11.0684 18.7149C11.0684 22.5437 14.1726 25.6466 18.0013 25.6466C21.83 25.6466 24.933 22.5437 24.933 18.7149C24.933 14.8861 21.8297 11.7818 18.001 11.7818H18.0013ZM18.0013 14.2147C20.4864 14.2147 22.5013 16.2294 22.5013 18.7149C22.5013 21.2001 20.4864 23.2151 18.0013 23.2151C15.5158 23.2151 13.5012 21.2001 13.5012 18.7149C13.5012 16.2294 15.5158 14.2147 18.0013 14.2147Z" fill="#561D5E"/>
</svg>
