<svg width="36" height="37" viewBox="0 0 36 37" fill="none" xmlns="http://www.w3.org/2000/svg">
<g clip-path="url(#clip0_1370_2403)">
<rect y="0.714355" width="36" height="36" rx="5" fill="#561D5E"/>
<g clip-path="url(#clip1_1370_2403)">
<path d="M30.6705 31.3924H25.3395V23.0389C25.3395 21.0469 25.299 18.4834 22.5615 18.4834C19.782 18.4834 19.3575 20.6509 19.3575 22.8919V31.3924H14.0265V14.2144H19.1475V16.5559H19.2165C19.932 15.2059 21.672 13.7809 24.2715 13.7809C29.673 13.7809 30.672 17.3359 30.672 21.9634V31.3924H30.6705ZM8.0055 11.8639C7.59882 11.8641 7.19609 11.784 6.82036 11.6284C6.44463 11.4728 6.10329 11.2446 5.81586 10.9569C5.52843 10.6692 5.30056 10.3276 5.14529 9.95172C4.99002 9.57585 4.91041 9.17304 4.911 8.76636C4.9113 8.15402 5.09316 7.55553 5.4336 7.04656C5.77404 6.53759 6.25776 6.14101 6.8236 5.90695C7.38943 5.6729 8.01196 5.61189 8.61247 5.73164C9.21298 5.85139 9.76449 6.14652 10.1973 6.57971C10.63 7.01291 10.9246 7.5647 11.0438 8.16533C11.163 8.76595 11.1014 9.38842 10.8668 9.95403C10.6322 10.5196 10.2351 11.003 9.7258 11.3429C9.2165 11.6829 8.61783 11.8642 8.0055 11.8639ZM10.6785 31.3924H5.3325V14.2144H10.6785V31.3924ZM33.3375 0.714355H2.6565C1.188 0.714355 0 1.87536 0 3.30786V34.1209C0 35.5549 1.188 36.7144 2.6565 36.7144H33.333C34.8 36.7144 36 35.5549 36 34.1209V3.30786C36 1.87536 34.8 0.714355 33.333 0.714355H33.3375Z" fill="#F2F1F2"/>
</g>
</g>
<defs>
<clipPath id="clip0_1370_2403">
<rect y="0.714355" width="36" height="36" rx="5" fill="white"/>
</clipPath>
<clipPath id="clip1_1370_2403">
<rect width="36" height="36" fill="white" transform="translate(0 0.714355)"/>
</clipPath>
</defs>
</svg>
