<svg width="24" height="33" viewBox="0 0 24 33" fill="none" xmlns="http://www.w3.org/2000/svg">
<g clip-path="url(#clip0_1370_2411)">
<path d="M24 12.7144C24 21.4424 13.8463 31.6964 13.4145 32.1286C13.0394 32.5036 12.5307 32.7142 12.0002 32.7142C11.4698 32.7142 10.9611 32.5036 10.586 32.1286C10.1538 31.6961 0 21.4424 0 12.7144C0 9.53176 1.26428 6.47951 3.51472 4.22907C5.76515 1.97864 8.8174 0.714355 12 0.714355C15.1826 0.714355 18.2348 1.97864 20.4853 4.22907C22.7357 6.47951 24 9.53176 24 12.7144ZM12 18.7144C13.1867 18.7144 14.3467 18.3625 15.3334 17.7032C16.3201 17.0439 17.0892 16.1068 17.5433 15.0105C17.9974 13.9141 18.1162 12.7077 17.8847 11.5438C17.6532 10.3799 17.0818 9.31083 16.2426 8.47171C15.4035 7.6326 14.3344 7.06115 13.1705 6.82964C12.0067 6.59813 10.8003 6.71695 9.7039 7.17108C8.60754 7.6252 7.67047 8.39424 7.01118 9.38093C6.35189 10.3676 6 11.5277 6 12.7144C5.99997 13.5023 6.15514 14.2825 6.45666 15.0105C6.75817 15.7385 7.20013 16.3999 7.75729 16.9571C8.31444 17.5142 8.97589 17.9562 9.70386 18.2577C10.4318 18.5592 11.2121 18.7144 12 18.7144Z" fill="#F2F1F2"/>
</g>
<defs>
<clipPath id="clip0_1370_2411">
<rect width="24" height="32" fill="white" transform="translate(0 0.714355)"/>
</clipPath>
</defs>
</svg>
