<svg width="24" height="25" viewBox="0 0 24 25" fill="none" xmlns="http://www.w3.org/2000/svg">
<path d="M12 1.71436C9.82441 1.71436 7.69767 2.35949 5.88873 3.56819C4.07979 4.77689 2.66989 6.49485 1.83733 8.50484C1.00477 10.5148 0.786929 12.7266 1.21137 14.8603C1.6358 16.9941 2.68345 18.9542 4.22183 20.4925C5.76021 22.0309 7.72022 23.0786 9.85401 23.503C11.9878 23.9274 14.1995 23.7096 16.2095 22.877C18.2195 22.0445 19.9375 20.6346 21.1462 18.8256C22.3549 17.0167 23 14.8899 23 12.7144C23 9.79697 21.8411 6.99908 19.7782 4.93618C17.7153 2.87328 14.9174 1.71436 12 1.71436ZM16 13.7144H12C11.7348 13.7144 11.4804 13.609 11.2929 13.4215C11.1054 13.2339 11 12.9796 11 12.7144V6.71436C11 6.44914 11.1054 6.19479 11.2929 6.00725C11.4804 5.81971 11.7348 5.71436 12 5.71436C12.2652 5.71436 12.5196 5.81971 12.7071 6.00725C12.8946 6.19479 13 6.44914 13 6.71436V11.7144H16C16.2652 11.7144 16.5196 11.8197 16.7071 12.0072C16.8946 12.1948 17 12.4491 17 12.7144C17 12.9796 16.8946 13.2339 16.7071 13.4215C16.5196 13.609 16.2652 13.7144 16 13.7144Z" fill="#F2F1F2"/>
</svg>
