<svg width="36" height="37" viewBox="0 0 36 37" fill="none" xmlns="http://www.w3.org/2000/svg">
<g clip-path="url(#clip0_1370_2398)">
<path d="M31.5 36.7144H4.5C2.016 36.7144 0 34.6984 0 32.2144V5.21436C0 2.73036 2.016 0.714355 4.5 0.714355H31.5C33.984 0.714355 36 2.73036 36 5.21436V32.2144C36 34.6984 33.984 36.7144 31.5 36.7144Z" fill="#F2F1F2"/>
<path d="M13.8238 27.8583C22.3108 27.8583 26.9548 20.8203 26.9548 14.7273C26.9548 14.5293 26.9548 14.3313 26.9458 14.1333C27.8458 13.4853 28.6288 12.6663 29.2498 11.7393C28.4218 12.1083 27.5308 12.3513 26.5948 12.4683C27.5488 11.9013 28.2778 10.9923 28.6288 9.91231C27.7378 10.4433 26.7478 10.8213 25.6948 11.0283C24.8488 10.1283 23.6518 9.57031 22.3288 9.57031C19.7818 9.57031 17.7118 11.6403 17.7118 14.1873C17.7118 14.5473 17.7568 14.8983 17.8288 15.2403C13.9948 15.0513 10.5928 13.2063 8.31579 10.4163C7.91979 11.1003 7.69479 11.8923 7.69479 12.7383C7.69479 14.3403 8.51379 15.7533 9.74679 16.5813C8.99079 16.5543 8.27979 16.3473 7.65879 16.0053C7.65879 16.0233 7.65879 16.0413 7.65879 16.0683C7.65879 18.3003 9.25179 20.1723 11.3578 20.5953C10.9708 20.7033 10.5658 20.7573 10.1428 20.7573C9.84579 20.7573 9.55779 20.7303 9.27879 20.6763C9.86379 22.5123 11.5738 23.8443 13.5898 23.8803C12.0058 25.1223 10.0168 25.8603 7.85679 25.8603C7.48779 25.8603 7.11879 25.8423 6.75879 25.7973C8.79279 27.0933 11.2228 27.8583 13.8238 27.8583Z" fill="#561D5E"/>
</g>
<defs>
<clipPath id="clip0_1370_2398">
<rect width="36" height="36" fill="white" transform="translate(0 0.714355)"/>
</clipPath>
</defs>
</svg>
