<svg width="48" height="48" viewBox="0 0 48 48" fill="none" xmlns="http://www.w3.org/2000/svg">
<rect width="48" height="48" rx="12" fill="#FF9200" fill-opacity="0.05"/>
<path d="M17.3398 15.167H19.2402C20.1348 15.167 20.6251 15.4009 20.8955 15.6719C21.1653 15.9424 21.3976 16.4314 21.3936 17.3242V19.2305C21.3935 20.1245 21.1598 20.6156 20.8877 20.8877C20.6156 21.1598 20.1245 21.3935 19.2305 21.3936H17.3301C16.4361 21.3936 15.945 21.1597 15.6729 20.8877C15.4008 20.6156 15.1671 20.1245 15.167 19.2305V17.3301C15.167 16.436 15.4004 15.9458 15.6729 15.6738C15.9458 15.4015 16.4393 15.167 17.3398 15.167Z" stroke="#FF9200" stroke-width="2.33333"/>
<path d="M28.77 15.167H30.6704C31.5644 15.1671 32.0556 15.4008 32.3276 15.6729C32.5996 15.945 32.8335 16.4361 32.8335 17.3301V19.2305C32.8334 20.1245 32.5997 20.6156 32.3276 20.8877C32.0556 21.1598 31.5644 21.3935 30.6704 21.3936H28.77C27.876 21.3936 27.385 21.1597 27.1128 20.8877C26.8407 20.6156 26.607 20.1245 26.6069 19.2305V17.3301C26.6069 16.4358 26.8407 15.945 27.1128 15.6729C27.3849 15.4007 27.8757 15.167 28.77 15.167Z" stroke="#FF9200" stroke-width="2.33333"/>
<path d="M28.77 26.597H30.6704C31.5644 26.5971 32.0556 26.8308 32.3276 27.1029C32.5996 27.3751 32.8335 27.8661 32.8335 28.7601V30.6605C32.8334 31.5545 32.5997 32.0457 32.3276 32.3177C32.0556 32.5898 31.5644 32.8235 30.6704 32.8236H28.77C27.876 32.8236 27.385 32.5898 27.1128 32.3177C26.8407 32.0457 26.607 31.5545 26.6069 30.6605V28.7601C26.6069 27.8658 26.8407 27.375 27.1128 27.1029C27.3849 26.8308 27.8757 26.597 28.77 26.597Z" stroke="#FF9200" stroke-width="2.33333"/>
<path d="M17.3398 26.597H19.2402C20.1348 26.5971 20.6244 26.8306 20.8945 27.1019C21.1646 27.3733 21.3977 27.8654 21.3936 28.765V30.6703C21.3935 31.5643 21.1598 32.0554 20.8877 32.3275C20.6156 32.5996 20.1245 32.8333 19.2305 32.8334H17.3301C16.4362 32.8334 15.9458 32.5999 15.6738 32.3275C15.4016 32.0546 15.1671 31.5609 15.167 30.6605V28.7601C15.167 27.866 15.4004 27.3758 15.6729 27.1039C15.9458 26.8316 16.4393 26.5971 17.3398 26.597Z" stroke="#FF9200" stroke-width="2.33333"/>
</svg>
