<svg width="24" height="32" viewBox="0 0 24 32" fill="none" xmlns="http://www.w3.org/2000/svg">
<g clip-path="url(#clip0_48_1957)">
<path d="M24 12C24 20.728 13.8463 30.982 13.4145 31.4142C13.0394 31.7892 12.5307 31.9999 12.0002 31.9999C11.4698 31.9999 10.9611 31.7892 10.586 31.4142C10.1538 30.9817 0 20.728 0 12C0 8.8174 1.26428 5.76515 3.51472 3.51472C5.76515 1.26428 8.8174 0 12 0C15.1826 0 18.2348 1.26428 20.4853 3.51472C22.7357 5.76515 24 8.8174 24 12ZM12 18C13.1867 18 14.3467 17.6481 15.3334 16.9888C16.3201 16.3295 17.0892 15.3925 17.5433 14.2961C17.9974 13.1997 18.1162 11.9933 17.8847 10.8295C17.6532 9.66557 17.0818 8.59647 16.2426 7.75736C15.4035 6.91824 14.3344 6.3468 13.1705 6.11529C12.0067 5.88378 10.8003 6.0026 9.7039 6.45672C8.60754 6.91085 7.67047 7.67988 7.01118 8.66658C6.35189 9.65327 6 10.8133 6 12C5.99997 12.7879 6.15514 13.5682 6.45666 14.2961C6.75817 15.0241 7.20013 15.6856 7.75729 16.2427C8.31444 16.7999 8.97589 17.2418 9.70386 17.5433C10.4318 17.8449 11.2121 18 12 18Z" fill="white"/>
</g>
<defs>
<clipPath id="clip0_48_1957">
<rect width="24" height="32" fill="white"/>
</clipPath>
</defs>
</svg>
