<svg width="35" height="35" viewBox="0 0 35 35" fill="none" xmlns="http://www.w3.org/2000/svg">
<path d="M20.1511 6.62834L19.8734 6.23945C18.7101 4.61094 16.2899 4.61094 15.1266 6.23945L14.8489 6.62834C14.2347 7.48816 13.2035 7.94858 12.1534 7.83189L10.9152 7.69432C9.05754 7.48791 7.48787 9.05757 7.69429 10.9152L7.83185 12.1534C7.94855 13.2036 7.48812 14.2347 6.6283 14.8489L6.23941 15.1266C4.6109 16.2899 4.6109 18.7102 6.23941 19.8735L6.6283 20.1511C7.48812 20.7654 7.94855 21.7966 7.83185 22.8467L7.69429 24.0849C7.48787 25.9425 9.05754 27.5122 10.9152 27.3057L12.1534 27.1682C13.2035 27.0515 14.2347 27.5119 14.8489 28.3718L15.1266 28.7606C16.2899 30.3891 18.7101 30.3891 19.8734 28.7606L20.1511 28.3718C20.7654 27.5119 21.7965 27.0515 22.8467 27.1682L24.0848 27.3057C25.9424 27.5122 27.5122 25.9425 27.3057 24.0849L27.1682 22.8467C27.0515 21.7966 27.5119 20.7654 28.3717 20.1511L28.7605 19.8735C30.389 18.7102 30.389 16.2899 28.7605 15.1266L28.3717 14.8489C27.5119 14.2347 27.0515 13.2036 27.1682 12.1534L27.3057 10.9152C27.5122 9.05757 25.9424 7.48791 24.0848 7.69432L22.8467 7.83189C21.7965 7.94858 20.7654 7.48816 20.1511 6.62834Z" stroke="#FF9200" stroke-width="2.5" stroke-linecap="round" stroke-linejoin="round"/>
<path d="M13.125 17.5L15.7776 20.1526C15.9234 20.2984 16.1599 20.2984 16.3058 20.1526L21.875 14.5834" stroke="#FF9200" stroke-width="2.5" stroke-linecap="round" stroke-linejoin="round"/>
</svg>
