<svg width="472" height="138" viewBox="0 0 472 138" fill="none" xmlns="http://www.w3.org/2000/svg">
<g clip-path="url(#clip0_16_344)">
<path d="M429.67 103.51C453.048 103.51 472 85.8657 472 64.1002C472 42.3346 453.048 24.6902 429.67 24.6902C406.292 24.6902 387.34 42.3346 387.34 64.1002C387.34 85.8657 406.292 103.51 429.67 103.51Z" fill="#F89A1C"/>
<path d="M429.75 61.7402C427.661 62.4977 425.393 62.6092 423.24 62.0602C420.912 61.455 418.858 60.0806 417.41 58.1602C419.146 59.6568 421.197 60.7436 423.41 61.3402C425.475 61.8992 427.631 62.0352 429.75 61.7402Z" fill="#561D5E"/>
<path d="M438.88 55.05L418.17 58.3301C421.771 60.4511 425.827 61.6819 430 61.92C428.783 65.7001 428.979 69.7931 430.55 73.4401L438.88 55.05Z" fill="#561D5E"/>
<path d="M430 61.9202C428.609 63.693 427.871 65.8911 427.911 68.1443C427.951 70.3974 428.767 72.5679 430.22 74.2902C429.246 72.3805 428.72 70.2739 428.682 68.1306C428.644 65.9872 429.095 63.8633 430 61.9202Z" fill="#561D5E"/>
<path d="M415.73 74.0002C413.641 74.7577 411.373 74.8692 409.22 74.3202C406.894 73.7169 404.84 72.3463 403.39 70.4302C405.077 71.8644 407.05 72.9242 409.177 73.5397C411.304 74.1551 413.538 74.312 415.73 74.0002Z" fill="#561D5E"/>
<path d="M424.86 67.28L404.15 70.55C407.736 72.6735 411.779 73.9079 415.94 74.15C414.724 77.9302 414.92 82.0229 416.49 85.67L424.86 67.28Z" fill="#561D5E"/>
<path d="M415.94 74.1501C414.549 75.923 413.811 78.1211 413.851 80.3743C413.891 82.6274 414.707 84.7979 416.16 86.5201C415.186 84.6104 414.66 82.5039 414.622 80.3605C414.584 78.2172 415.034 76.0933 415.94 74.1501Z" fill="#561D5E"/>
<path d="M444.2 49.58C442.115 50.3398 439.849 50.4514 437.7 49.9C435.371 49.2926 433.313 47.9188 431.86 46C433.615 47.4961 435.682 48.5824 437.91 49.18C439.959 49.7291 442.097 49.865 444.2 49.58Z" fill="#561D5E"/>
<path d="M453.33 42.9001L432.62 46.1701C434.555 47.3113 436.629 48.1986 438.79 48.8101C440.623 49.3416 442.507 49.6768 444.41 49.8101C443.217 53.5829 443.427 57.6596 445 61.2901L453.33 42.9001Z" fill="#561D5E"/>
<path d="M444.41 49.77C443.018 51.5405 442.279 53.7373 442.319 55.9892C442.36 58.2411 443.176 60.4102 444.63 62.13C443.656 60.2221 443.13 58.1172 443.092 55.9754C443.054 53.8337 443.505 51.7114 444.41 49.77Z" fill="#561D5E"/>
<path d="M64.251 85.4371C57.8783 91.0031 49.5697 93.7861 39.325 93.7861C29.0803 93.7861 20.7717 91.0031 14.399 85.4371C8.02633 79.8711 4.84 72.5708 4.84 63.5361V7.15009H29.04V60.8741C29.04 67.1661 32.4683 70.3121 39.325 70.3121C46.1817 70.3121 49.61 67.1661 49.61 60.8741V7.15009H73.81V63.5361C73.81 72.5708 70.6237 79.8711 64.251 85.4371ZM122.136 29.6561C130.284 29.6561 136.939 32.6811 142.101 38.7311C147.264 44.7811 149.845 52.4041 149.845 61.6001C149.845 70.7961 147.264 78.4191 142.101 84.4691C136.939 90.5191 130.284 93.5441 122.136 93.5441C115.199 93.5441 109.794 91.1644 105.922 86.4051V116.05H83.5373V31.3501H105.922V36.7951C109.794 32.0358 115.199 29.6561 122.136 29.6561ZM108.826 69.7071C110.843 71.8851 113.465 72.9741 116.691 72.9741C119.918 72.9741 122.499 71.8851 124.435 69.7071C126.452 67.5291 127.46 64.8268 127.46 61.6001C127.46 58.3734 126.452 55.6711 124.435 53.4931C122.499 51.3151 119.918 50.2261 116.691 50.2261C113.465 50.2261 110.843 51.3151 108.826 53.4931C106.89 55.6711 105.922 58.3734 105.922 61.6001C105.922 64.8268 106.89 67.5291 108.826 69.7071ZM195.516 29.6561C203.663 29.6561 210.318 32.6811 215.481 38.7311C220.644 44.7811 223.225 52.4041 223.225 61.6001C223.225 70.7961 220.644 78.4191 215.481 84.4691C210.318 90.5191 203.663 93.5441 195.516 93.5441C188.579 93.5441 183.174 91.1644 179.302 86.4051V116.05H156.917V31.3501H179.302V36.7951C183.174 32.0358 188.579 29.6561 195.516 29.6561ZM182.206 69.7071C184.223 71.8851 186.844 72.9741 190.071 72.9741C193.298 72.9741 195.879 71.8851 197.815 69.7071C199.832 67.5291 200.84 64.8268 200.84 61.6001C200.84 58.3734 199.832 55.6711 197.815 53.4931C195.879 51.3151 193.298 50.2261 190.071 50.2261C186.844 50.2261 184.223 51.3151 182.206 53.4931C180.27 55.6711 179.302 58.3734 179.302 61.6001C179.302 64.8268 180.27 67.5291 182.206 69.7071ZM241.55 26.7521C238.162 26.7521 235.218 25.5421 232.717 23.1221C230.297 20.6214 229.087 17.7174 229.087 14.4101C229.087 11.1028 230.297 8.23909 232.717 5.81909C235.218 3.31843 238.162 2.06809 241.55 2.06809C244.857 2.06809 247.721 3.31843 250.141 5.81909C252.642 8.23909 253.892 11.1028 253.892 14.4101C253.892 17.7174 252.642 20.6214 250.141 23.1221C247.721 25.5421 244.857 26.7521 241.55 26.7521ZM230.297 91.8501V31.3501H252.682V91.8501H230.297ZM283.978 49.1371C283.978 50.1051 284.704 50.8714 286.156 51.4361C287.689 52.0008 289.585 52.4444 291.843 52.7671C294.102 53.0091 296.522 53.5334 299.103 54.3401C301.685 55.1468 304.105 56.1551 306.363 57.3651C308.622 58.5751 310.477 60.5111 311.929 63.1731C313.462 65.7544 314.228 68.9004 314.228 72.6111C314.228 76.4831 313.341 79.8711 311.566 82.7751C309.872 85.6791 307.614 87.8571 304.79 89.3091C301.967 90.7611 299.063 91.8098 296.078 92.4551C293.174 93.1811 290.149 93.5441 287.003 93.5441C272.403 93.5441 262.965 88.7444 258.689 79.1451L278.17 70.4331C279.703 74.5471 282.567 76.6041 286.761 76.6041C289.504 76.6041 290.875 75.7168 290.875 73.9421C290.875 72.8934 289.867 72.0464 287.85 71.4011C285.834 70.7558 283.414 70.1104 280.59 69.4651C277.767 68.7391 274.903 67.8114 271.999 66.6821C269.176 65.4721 266.756 63.4958 264.739 60.7531C262.723 58.0104 261.714 54.5821 261.714 50.4681C261.714 43.8534 264.215 38.7311 269.216 35.1011C274.298 31.4711 280.147 29.6561 286.761 29.6561C299.991 29.6561 308.743 34.7784 313.018 45.0231L294.505 51.6781C293.053 48.2901 290.795 46.5961 287.729 46.5961C285.229 46.5961 283.978 47.4431 283.978 49.1371ZM359.086 52.6461H346.381V65.7141C346.381 67.7308 346.865 69.2231 347.833 70.1911C348.801 71.1591 350.213 71.7238 352.068 71.8851C354.004 71.9658 356.344 71.9254 359.086 71.7641V91.8501C346.422 93.6248 337.387 92.5358 331.982 88.5831C326.658 84.6304 323.996 77.4108 323.996 66.9241V52.6461H315.526V31.3501H323.996V21.0651L346.381 14.4101V31.3501H359.086V52.6461Z" fill="#561D5E"/>
</g>
<defs>
<clipPath id="clip0_16_344">
<rect width="472" height="137.21" fill="white"/>
</clipPath>
</defs>
</svg>
