<svg width="48" height="48" viewBox="0 0 48 48" fill="none" xmlns="http://www.w3.org/2000/svg">
<rect width="48" height="48" rx="12" fill="#FF9200" fill-opacity="0.05"/>
<path d="M14.0615 24.348C13.9782 24.1235 13.9782 23.8765 14.0615 23.652C14.8732 21.6838 16.251 20.001 18.0203 18.8169C19.7896 17.6328 21.8706 17.0006 23.9995 17.0006C26.1285 17.0006 28.2095 17.6328 29.9788 18.8169C31.748 20.001 33.1258 21.6838 33.9375 23.652C34.0209 23.8765 34.0209 24.1235 33.9375 24.348C33.1258 26.3161 31.748 27.999 29.9788 29.1831C28.2095 30.3672 26.1285 30.9994 23.9995 30.9994C21.8706 30.9994 19.7896 30.3672 18.0203 29.1831C16.251 27.999 14.8732 26.3161 14.0615 24.348Z" stroke="#FF9200" stroke-width="2.33333" stroke-linecap="round" stroke-linejoin="round"/>
<path d="M24 27C25.6569 27 27 25.6569 27 24C27 22.3431 25.6569 21 24 21C22.3431 21 21 22.3431 21 24C21 25.6569 22.3431 27 24 27Z" stroke="#FF9200" stroke-width="2.33333" stroke-linecap="round" stroke-linejoin="round"/>
</svg>
