<svg width="20" height="20" viewBox="0 0 20 20" fill="none" xmlns="http://www.w3.org/2000/svg">
<path d="M12.6035 17.5832L5.5827 10.5832C5.49936 10.4998 5.4402 10.4096 5.4052 10.3123C5.3702 10.2151 5.35297 10.1109 5.35353 9.99984C5.35353 9.88873 5.37103 9.78456 5.40603 9.68734C5.44103 9.59012 5.49992 9.49984 5.5827 9.4165L12.6035 2.39567C12.798 2.20123 13.041 2.104 13.3327 2.104C13.6244 2.104 13.8744 2.20817 14.0827 2.4165C14.291 2.62484 14.3952 2.86789 14.3952 3.14567C14.3952 3.42345 14.291 3.6665 14.0827 3.87484L7.9577 9.99984L14.0827 16.1248C14.2771 16.3193 14.3744 16.559 14.3744 16.844C14.3744 17.129 14.2702 17.3754 14.0619 17.5832C13.8535 17.7915 13.6105 17.8957 13.3327 17.8957C13.0549 17.8957 12.8119 17.7915 12.6035 17.5832Z" fill="#2B2B2B"/>
</svg>
