<svg width="56" height="56" viewBox="0 0 56 56" fill="none" xmlns="http://www.w3.org/2000/svg">
<circle cx="28" cy="28" r="28" fill="#F89A1C"/>
<path d="M34.0132 35.8808L30.8008 38.1606C29.7674 38.894 28.3369 38.1551 28.3369 36.8879C28.3369 36.026 27.6382 35.3273 26.7763 35.3273H20.0907C18.4338 35.3273 17.0907 33.9841 17.0907 32.3273V20C17.0907 18.3431 18.4338 17 20.0907 17H36.9998C38.6566 17 39.9998 18.3431 39.9998 20V32.3273C39.9998 33.9841 38.6566 35.3273 36.9998 35.3273H35.7495C35.1273 35.3273 34.5206 35.5207 34.0132 35.8808Z" stroke="white" stroke-width="4"/>
<path d="M34.585 29.7318V28.6459C34.585 27.8101 33.6138 27.3405 32.9254 27.8145C29.4135 30.2326 27.0836 30.4162 24.3384 28.2739C23.6271 27.7188 22.5056 28.1755 22.5056 29.0778V29.8563C22.5056 30.256 22.7412 30.6217 23.1202 30.7485C26.6948 31.9437 31.8877 31.0771 33.8217 30.6826C34.2724 30.5907 34.585 30.1918 34.585 29.7318Z" fill="white"/>
<circle cx="1.66612" cy="1.66612" r="1.66612" transform="matrix(-1 0 0 1 33.7513 21.165)" fill="white"/>
<circle cx="1.66612" cy="1.66612" r="1.66612" transform="matrix(-1 0 0 1 26.6707 21.165)" fill="white"/>
</svg>
