<svg width="26" height="26" viewBox="0 0 26 26" fill="none" xmlns="http://www.w3.org/2000/svg">
<path fill-rule="evenodd" clip-rule="evenodd" d="M13 1.81395C6.82212 1.81395 1.81395 6.82212 1.81395 13C1.81395 19.1779 6.82212 24.186 13 24.186C19.1779 24.186 24.186 19.1779 24.186 13C24.186 6.82212 19.1779 1.81395 13 1.81395ZM0 13C0 5.8203 5.8203 0 13 0C20.1797 0 26 5.8203 26 13C26 20.1797 20.1797 26 13 26C5.8203 26 0 20.1797 0 13ZM8.64346 17.2971C8.94174 16.8947 9.50977 16.8103 9.91218 17.1086C10.793 17.7614 11.8561 18.1395 13 18.1395C14.1439 18.1395 15.207 17.7614 16.0878 17.1086C16.4902 16.8103 17.0583 16.8947 17.3565 17.2971C17.6548 17.6995 17.5704 18.2676 17.168 18.5658C15.9921 19.4375 14.5539 19.9535 13 19.9535C11.4461 19.9535 10.0079 19.4375 8.832 18.5658C8.42959 18.2676 8.34517 17.6995 8.64346 17.2971Z" fill="#02040F"/>
<path d="M17.8372 11.186C17.8372 12.1879 17.2958 13 16.6279 13C15.96 13 15.4186 12.1879 15.4186 11.186C15.4186 10.1842 15.96 9.37209 16.6279 9.37209C17.2958 9.37209 17.8372 10.1842 17.8372 11.186Z" fill="#02040F"/>
<path d="M10.5814 11.186C10.5814 12.1879 10.04 13 9.37209 13C8.70421 13 8.16279 12.1879 8.16279 11.186C8.16279 10.1842 8.70421 9.37209 9.37209 9.37209C10.04 9.37209 10.5814 10.1842 10.5814 11.186Z" fill="#02040F"/>
</svg>
