<svg width="25" height="25" viewBox="0 0 25 25" fill="none" xmlns="http://www.w3.org/2000/svg">
<circle cx="12.5" cy="12.5" r="12.5" fill="#F89A1C"/>
<path d="M12.9164 7.01416C12.1413 7.01416 11.3737 7.16684 10.6576 7.46348C9.9414 7.76012 9.29068 8.19492 8.74256 8.74304C7.63557 9.85003 7.01367 11.3514 7.01367 12.9169C7.01367 14.4825 7.63557 15.9838 8.74256 17.0908C9.29068 17.639 9.9414 18.0738 10.6576 18.3704C11.3737 18.667 12.1413 18.8197 12.9164 18.8197C14.482 18.8197 15.9834 18.1978 17.0903 17.0908C18.1973 15.9838 18.8192 14.4825 18.8192 12.9169C18.8192 12.1418 18.6665 11.3742 18.3699 10.658C18.0733 9.94188 17.6385 9.29117 17.0903 8.74304C16.5422 8.19492 15.8915 7.76012 15.1753 7.46348C14.4592 7.16684 13.6916 7.01416 12.9164 7.01416ZM10.0064 16.6239C10.2602 16.0926 11.8067 15.5732 12.9164 15.5732C14.0262 15.5732 15.5727 16.0926 15.8265 16.6239C14.9998 17.2826 13.9736 17.6407 12.9164 17.6392C11.8185 17.6392 10.8092 17.2614 10.0064 16.6239ZM16.6706 15.768C15.8265 14.7409 13.7783 14.3926 12.9164 14.3926C12.0546 14.3926 10.0064 14.7409 9.16228 15.768C8.53434 14.9502 8.19403 13.948 8.19423 12.9169C8.19423 10.3138 10.3133 8.19472 12.9164 8.19472C15.5196 8.19472 17.6387 10.3138 17.6387 12.9169C17.6387 13.9912 17.2727 14.9829 16.6706 15.768ZM12.9164 9.37527C11.7713 9.37527 10.8505 10.2961 10.8505 11.4412C10.8505 12.5864 11.7713 13.5072 12.9164 13.5072C14.0616 13.5072 14.9824 12.5864 14.9824 11.4412C14.9824 10.2961 14.0616 9.37527 12.9164 9.37527ZM12.9164 12.3267C12.6816 12.3267 12.4564 12.2334 12.2904 12.0673C12.1243 11.9013 12.031 11.6761 12.031 11.4412C12.031 11.2064 12.1243 10.9812 12.2904 10.8152C12.4564 10.6491 12.6816 10.5558 12.9164 10.5558C13.1513 10.5558 13.3765 10.6491 13.5425 10.8152C13.7086 10.9812 13.8019 11.2064 13.8019 11.4412C13.8019 11.6761 13.7086 11.9013 13.5425 12.0673C13.3765 12.2334 13.1513 12.3267 12.9164 12.3267Z" fill="white"/>
</svg>
