<svg width="24" height="24" viewBox="0 0 24 24" fill="none" xmlns="http://www.w3.org/2000/svg">
<g clip-path="url(#clip0_3459_2264)">
<path d="M17.7195 11.05C17.7195 7.88541 15.1564 5.32 11.9945 5.32C8.8327 5.32 6.26953 7.88541 6.26953 11.05V14.86C6.26953 18.0246 8.8327 20.59 11.9945 20.59C15.1564 20.59 17.7195 18.0246 17.7195 14.86V11.05Z" stroke="#C1C1C1" stroke-width="1.5" stroke-miterlimit="10"/>
<path d="M17.7305 9.14H19.6405C20.399 9.14 21.1264 9.44132 21.6628 9.97768C22.1991 10.514 22.5005 11.2415 22.5005 12V13.91C22.5005 14.6685 22.1991 15.396 21.6628 15.9323C21.1264 16.4687 20.399 16.77 19.6405 16.77H17.7305V9.14Z" stroke="#C1C1C1" stroke-width="1.5" stroke-miterlimit="10"/>
<path d="M6.26953 16.77H4.35953C3.60101 16.77 2.87356 16.4687 2.33721 15.9323C1.80085 15.396 1.49953 14.6685 1.49953 13.91L1.49953 12C1.49953 11.6244 1.57351 11.2525 1.71724 10.9055C1.86096 10.5585 2.07163 10.2433 2.33721 9.97768C2.60278 9.7121 2.91807 9.50143 3.26506 9.35771C3.61205 9.21398 3.98395 9.14 4.35953 9.14H6.26953L6.26953 16.77Z" stroke="#C1C1C1" stroke-width="1.5" stroke-miterlimit="10"/>
<path d="M4.36035 9.14C4.36035 7.11375 5.16528 5.17048 6.59806 3.7377C8.03083 2.30493 9.9741 1.5 12.0004 1.5C14.0266 1.5 15.9699 2.30493 17.4026 3.7377C18.8354 5.17048 19.6404 7.11375 19.6404 9.14" stroke="#C1C1C1" stroke-width="1.5" stroke-miterlimit="10"/>
<path d="M19.6404 16.77V17.77C19.6377 19.036 19.1329 20.2492 18.2368 21.1435C17.3407 22.0378 16.1264 22.54 14.8604 22.54" stroke="#C1C1C1" stroke-width="1.5" stroke-miterlimit="10"/>
</g>
<defs>
<clipPath id="clip0_3459_2264">
<rect width="24" height="24" fill="white"/>
</clipPath>
</defs>
</svg>
