<svg width="2" height="13" viewBox="0 0 2 13" fill="none" xmlns="http://www.w3.org/2000/svg">
<path d="M2 1C2 1.55228 1.55228 2 1 2C0.447715 2 0 1.55228 0 1C0 0.447715 0.447715 0 1 0C1.55228 0 2 0.447715 2 1Z" fill="black"/>
<path d="M2 6.33333C2 6.88562 1.55228 7.33333 1 7.33333C0.447715 7.33333 0 6.88562 0 6.33333C0 5.78105 0.447715 5.33333 1 5.33333C1.55228 5.33333 2 5.78105 2 6.33333Z" fill="black"/>
<path d="M1 12.6667C1.55228 12.6667 2 12.219 2 11.6667C2 11.1144 1.55228 10.6667 1 10.6667C0.447715 10.6667 0 11.1144 0 11.6667C0 12.219 0.447715 12.6667 1 12.6667Z" fill="black"/>
</svg>
