<svg width="51" height="51" viewBox="0 0 51 51" fill="none" xmlns="http://www.w3.org/2000/svg">
<path d="M25.5 4.25C22.7094 4.25 19.9461 4.79965 17.368 5.86756C14.7898 6.93547 12.4472 8.50074 10.474 10.474C6.48883 14.4591 4.25 19.8641 4.25 25.5C4.25 31.1359 6.48883 36.5409 10.474 40.526C12.4472 42.4993 14.7898 44.0645 17.368 45.1324C19.9461 46.2004 22.7094 46.75 25.5 46.75C31.1359 46.75 36.5409 44.5112 40.526 40.526C44.5112 36.5409 46.75 31.1359 46.75 25.5C46.75 22.7094 46.2004 19.9461 45.1324 17.368C44.0645 14.7898 42.4993 12.4472 40.526 10.474C38.5528 8.50074 36.2102 6.93547 33.632 5.86756C31.0539 4.79965 28.2906 4.25 25.5 4.25ZM15.0238 38.845C15.9375 36.9325 21.505 35.0625 25.5 35.0625C29.495 35.0625 35.0625 36.9325 35.9762 38.845C32.9999 41.2166 29.3056 42.5054 25.5 42.5C21.5475 42.5 17.9138 41.14 15.0238 38.845ZM39.015 35.7638C35.9763 32.0662 28.6025 30.8125 25.5 30.8125C22.3975 30.8125 15.0237 32.0662 11.985 35.7638C9.72439 32.8198 8.49929 29.2117 8.5 25.5C8.5 16.1287 16.1287 8.5 25.5 8.5C34.8713 8.5 42.5 16.1287 42.5 25.5C42.5 29.3675 41.1825 32.9375 39.015 35.7638ZM25.5 12.75C21.3775 12.75 18.0625 16.065 18.0625 20.1875C18.0625 24.31 21.3775 27.625 25.5 27.625C29.6225 27.625 32.9375 24.31 32.9375 20.1875C32.9375 16.065 29.6225 12.75 25.5 12.75ZM25.5 23.375C24.6546 23.375 23.8439 23.0392 23.2461 22.4414C22.6483 21.8436 22.3125 21.0329 22.3125 20.1875C22.3125 19.3421 22.6483 18.5314 23.2461 17.9336C23.8439 17.3358 24.6546 17 25.5 17C26.3454 17 27.1561 17.3358 27.7539 17.9336C28.3517 18.5314 28.6875 19.3421 28.6875 20.1875C28.6875 21.0329 28.3517 21.8436 27.7539 22.4414C27.1561 23.0392 26.3454 23.375 25.5 23.375Z" fill="#2B2B2B" fill-opacity="0.5"/>
</svg>
