<svg width="20" height="12" viewBox="0 0 20 12" fill="none" xmlns="http://www.w3.org/2000/svg">
<path fill-rule="evenodd" clip-rule="evenodd" d="M12 6.00049C12 7.14765 11.105 8.07666 10 8.07666C8.895 8.07666 8 7.14765 8 6.00049C8 4.85333 8.895 3.92432 10 3.92432C11.105 3.92432 12 4.85333 12 6.00049ZM10 9.92383C7.011 9.92383 4.195 8.44741 2.399 6.00049C4.195 3.55356 7.011 2.07617 10 2.07617C12.989 2.07617 15.805 3.55356 17.601 6.00049C15.805 8.44741 12.989 9.92383 10 9.92383ZM10 0C5.724 0 1.999 2.41679 0 6.00049C1.999 9.58419 5.724 12 10 12C14.276 12 18.001 9.58419 20 6.00049C18.001 2.41679 14.276 0 10 0Z" fill="#2B2B2B"/>
</svg>
